<svg xmlns="http://www.w3.org/2000/svg" viewBox="0 0 20 20" fill="currentColor" aria-hidden="true"><path d="M5.658 4.88a2.88 2.88 0 1 1 5.76.046h1.632c1.117 0 2.023.906 2.023 2.023v1.634h.047a2.88 2.88 0 1 1-.047 5.76v1.634A2.023 2.023 0 0 1 13.05 18H4.023A2.023 2.023 0 0 1 2 15.977v-2.445a.686.686 0 0 1 .914-.646 1.509 1.509 0 1 0 0-2.846A.686.686 0 0 1 2 9.394V6.949c0-1.117.906-2.023 2.023-2.023h1.635V4.88zm2.88-1.509a1.508 1.508 0 0 0-1.423 2.012.686.686 0 0 1-.647.914H4.023a.652.652 0 0 0-.652.652v1.634h.046a2.88 2.88 0 1 1-.046 5.76v1.634c0 .36.292.652.652.652h9.027c.36 0 .652-.292.652-.652v-2.445a.686.686 0 0 1 .915-.646 1.509 1.509 0 1 0 0-2.845.686.686 0 0 1-.915-.647V6.949a.652.652 0 0 0-.652-.652h-2.443a.686.686 0 0 1-.647-.914 1.509 1.509 0 0 0-1.423-2.011z" fill-rule="evenodd" clip-rule="evenodd"/></svg>