<svg xmlns="http://www.w3.org/2000/svg" viewBox="0 0 20 20" fill="currentColor" aria-hidden="true" aria-label="Public Dashboard"><path d="M4 3.5h12a.5.5 0 0 1 .5.5v12a.5.5 0 0 1-.5.5H4a.5.5 0 0 1-.5-.5V4a.5.5 0 0 1 .5-.5zM2 4a2 2 0 0 1 2-2h12a2 2 0 0 1 2 2v12a2 2 0 0 1-2 2H4a2 2 0 0 1-2-2V4zm3.5 10.25a.75.75 0 0 0 1.5 0v-3.5a.75.75 0 0 0-1.5 0v3.5zm4.75.75a.75.75 0 0 1-.75-.75v-6.5a.75.75 0 0 1 1.5 0v6.5a.75.75 0 0 1-.75.75zm3.25-.75a.75.75 0 0 0 1.5 0v-8.5a.75.75 0 0 0-1.5 0v8.5z" fill-rule="evenodd" clip-rule="evenodd"/></svg>