<svg xmlns="http://www.w3.org/2000/svg" viewBox="0 0 20 20" fill="currentColor" aria-hidden="true"><path d="M1.916 11.067a.75.75 0 0 1 .75-.75H7.45a.75.75 0 0 1 .75.75v.61c0 .224.206.469.525.469h2.87c.32 0 .525-.245.525-.47v-.61a.75.75 0 0 1 .75-.75h4.464a.75.75 0 0 1 .75.75v2.268a2.75 2.75 0 0 1-2.75 2.75H4.666a2.75 2.75 0 0 1-2.75-2.75v-2.267zm1.5.75v1.517c0 .69.56 1.25 1.25 1.25h10.667c.69 0 1.25-.56 1.25-1.25v-1.517h-2.969c-.075 1.046-.983 1.829-2.02 1.829h-2.87c-1.037 0-1.945-.783-2.02-1.83H3.416z" fill-rule="evenodd" clip-rule="evenodd"/><path d="M5.846 5.417a.583.583 0 0 0-.551.391l-1.92 5.506a.75.75 0 0 1-1.417-.494l1.92-5.506a2.083 2.083 0 0 1 1.968-1.397h8.308c.886 0 1.676.56 1.968 1.397l1.92 5.506a.75.75 0 1 1-1.417.494l-1.92-5.506a.583.583 0 0 0-.55-.391h-8.31z" fill-rule="evenodd" clip-rule="evenodd"/></svg>