<svg xmlns="http://www.w3.org/2000/svg" viewBox="0 0 20 20" fill="currentColor" aria-hidden="true"><path d="M7.27 2.344a3.865 3.865 0 1 1 2.96 7.142 3.865 3.865 0 0 1-2.96-7.142zM8.75 3.55a2.365 2.365 0 1 0 0 4.73 2.365 2.365 0 0 0 0-4.73z" fill-rule="evenodd" clip-rule="evenodd"/><path d="M8.34 10.731h.785a7.395 7.395 0 0 1 1.864.305c.502.15.507.832.105 1.17a.73.73 0 0 1-.674.14 5.642 5.642 0 0 0-1.314-.212h-.713a5.525 5.525 0 0 0-2.413.664 4.77 4.77 0 0 0-1.757 1.63 4.09 4.09 0 0 0-.64 2.168h5.632a.63.63 0 0 1 .573.413c.173.438-.114.99-.585.99H2.792C2.354 18 2 17.687 2 17.3v-.69c0-1.002.289-1.989.84-2.865a6.264 6.264 0 0 1 2.308-2.14 7.257 7.257 0 0 1 3.191-.873zm6.36.769a.75.75 0 0 1 .75.75V14h1.75a.75.75 0 0 1 0 1.5h-1.75v1.75a.75.75 0 0 1-1.5 0V15.5H12.2a.75.75 0 0 1 0-1.5h1.75v-1.75a.75.75 0 0 1 .75-.75z"/></svg>