<svg xmlns="http://www.w3.org/2000/svg" viewBox="0 0 20 20" fill="currentColor" aria-hidden="true" aria-label="Private board"><path d="M7.5 4.5H16a.5.5 0 0 1 .5.5v3.078c.532.087 1.058.251 1.5.525V5a2 2 0 0 0-2-2H4a2 2 0 0 0-2 2v10a2 2 0 0 0 2 2h6.499v-1.5H7.5v-11zM6 4.5H4a.5.5 0 0 0-.5.5v10a.5.5 0 0 0 .5.5h2v-11zm11.293 7.965v1.012h-2.93v-1.012a1.465 1.465 0 1 1 2.93 0zm-5.124 1.012h.695v-1.012a2.965 2.965 0 1 1 5.93 0v1.012h.698c.27 0 .49.22.49.49v5.544a.49.49 0 0 1-.49.489H12.17a.49.49 0 0 1-.489-.49v-5.543c0-.27.22-.49.49-.49z" fill-rule="evenodd" clip-rule="evenodd"/></svg>