<svg xmlns="http://www.w3.org/2000/svg" viewBox="0 0 20 20" fill="currentColor" aria-hidden="true"><path d="M6 1.821a.75.75 0 0 1 .75.75v1.536h6.5V2.571a.75.75 0 1 1 1.5 0v1.536h1.536A1.893 1.893 0 0 1 18.178 6v10.286a1.893 1.893 0 0 1-1.892 1.892H3.714a1.893 1.893 0 0 1-1.893-1.892V6a1.893 1.893 0 0 1 1.893-1.893c.049 0 .097.005.143.014A.754.754 0 0 1 4 4.107h1.25V2.571a.75.75 0 0 1 .75-.75zm-.75 5.322V5.607H4a.754.754 0 0 1-.143-.014.754.754 0 0 1-.143.014.393.393 0 0 0-.393.393v10.286a.393.393 0 0 0 .393.392h12.572a.393.393 0 0 0 .392-.392V6a.393.393 0 0 0-.392-.393H14.75v1.536a.75.75 0 0 1-1.5 0V5.607h-6.5v1.536a.75.75 0 0 1-1.5 0zm8.171 2.78a.75.75 0 1 0-1.128-.988L8.75 12.982l-1.73-1.296a.75.75 0 1 0-.9 1.2L8.407 14.6a.75.75 0 0 0 1.014-.106l4-4.572z" fill-rule="evenodd" clip-rule="evenodd"/></svg>