<svg xmlns="http://www.w3.org/2000/svg" viewBox="0 0 20 20" fill="currentColor" aria-hidden="true"><path d="M10 2.05a.75.75 0 0 1 .75.75v.81a5.829 5.829 0 0 1 5.173 5.792c0 2.339.25 3.653.473 4.356.11.35.213.54.268.629a.66.66 0 0 0 .04.056.75.75 0 0 1-.515 1.296h-3.236a.746.746 0 0 1-.03.196A2.944 2.944 0 0 1 10.1 18.05a2.938 2.938 0 0 1-2.82-2.115.75.75 0 0 1-.031-.196H4a.75.75 0 0 1-.59-1.216c.015-.022.042-.069.08-.142.073-.146.184-.4.299-.79.23-.779.477-2.102.477-4.189A5.829 5.829 0 0 1 9.25 3.635V2.8a.75.75 0 0 1 .75-.75zM8.807 15.739a1.444 1.444 0 0 0 1.294.811 1.438 1.438 0 0 0 1.295-.811H8.807zM7.034 6.34a4.329 4.329 0 0 1 7.39 3.061c0 2.433.257 3.912.542 4.81l.009.027H5.158l.07-.223c.277-.941.538-2.41.538-4.614 0-1.148.456-2.249 1.268-3.06z" fill-rule="evenodd" clip-rule="evenodd"/></svg>