<svg xmlns="http://www.w3.org/2000/svg" viewBox="0 0 20 20" fill="currentColor" aria-hidden="true"><path d="M3 2.25a.75.75 0 0 0-.75.75v5.385c0 .414.336.75.75.75h5.385a.75.75 0 0 0 .75-.75V3a.75.75 0 0 0-.75-.75H3zm.75 5.385V3.75h3.885v3.885H3.75zm7.865-5.385a.75.75 0 0 0-.75.75v5.385c0 .414.336.75.75.75H17a.75.75 0 0 0 .75-.75V3a.75.75 0 0 0-.75-.75h-5.385zm.75 5.385V3.75h3.885v3.885h-3.885zM2.25 11.615a.75.75 0 0 1 .75-.75h5.385a.75.75 0 0 1 .75.75V17a.75.75 0 0 1-.75.75H3a.75.75 0 0 1-.75-.75v-5.385zm1.5.75v3.885h3.885v-3.885H3.75zm7.865-1.5a.75.75 0 0 0-.75.75V17c0 .414.336.75.75.75H17a.75.75 0 0 0 .75-.75v-5.385a.75.75 0 0 0-.75-.75h-5.385zm.75 5.385v-3.885h3.885v3.885h-3.885z" fill-rule="evenodd" clip-rule="evenodd"/></svg>